<?xml version="1.0" standalone="no"?>
<!DOCTYPE svg PUBLIC "-//W3C//DTD SVG 20010904//EN"
 "http://www.w3.org/TR/2001/REC-SVG-20010904/DTD/svg10.dtd">
<svg version="1.0" xmlns="http://www.w3.org/2000/svg"
 width="398.000000pt" height="398.000000pt" viewBox="0 0 398.000000 398.000000"
 preserveAspectRatio="xMidYMid meet">
<metadata>
Created by potrace 1.11, written by Peter Selinger 2001-2013
</metadata>
<g transform="translate(0.000000,398.000000) scale(0.100000,-0.100000)"
fill="#000000" stroke="none">
<path d="M925 3952 c-118 -42 -215 -86 -214 -97 0 -5 37 -50 83 -98 l83 -89
129 23 c89 15 169 22 259 22 122 0 141 -3 309 -46 99 -26 189 -47 201 -47 19
0 23 -7 29 -52 4 -29 9 -68 12 -85 l6 -33 -106 0 c-119 0 -160 -12 -194 -55
-21 -27 -22 -37 -22 -264 0 -259 1 -266 60 -296 44 -23 966 -22 1014 0 62 30
66 48 66 297 0 240 -3 255 -53 292 -24 18 -46 22 -139 24 l-110 4 6 146 c4 81
9 171 13 200 l5 52 64 0 64 0 0 58 0 59 -97 6 c-54 4 -388 7 -743 7 l-645 0
-80 -28z"/>
<path d="M1436 2369 c-235 -362 -294 -467 -330 -590 -37 -128 -46 -271 -46
-708 l0 -394 28 6 c15 3 89 11 165 18 l137 13 0 26 c0 53 40 182 80 259 78
149 208 262 372 323 107 40 256 49 370 24 137 -31 288 -120 372 -221 84 -102
125 -190 155 -335 l16 -74 125 -13 c69 -6 140 -14 158 -17 l33 -5 -4 487 c-6
678 12 620 -365 1197 l-209 320 -424 2 -424 2 -209 -320z"/>
<path d="M1944 1148 c-35 -17 -44 -52 -44 -178 l0 -120 -120 0 c-66 0 -130 -5
-143 -11 -37 -17 -47 -50 -47 -163 0 -89 3 -107 21 -130 20 -26 22 -26 154
-26 l133 0 4 -134 c4 -180 0 -176 165 -176 167 0 163 -4 163 175 l0 135 135 0
c179 0 175 -4 175 164 0 123 0 125 -26 145 -24 19 -40 21 -155 21 l-129 0 0
134 c0 133 0 135 -26 155 -23 18 -40 21 -133 20 -58 0 -116 -5 -127 -11z"/>
</g>
</svg>
